<?xml version="1.0" encoding="utf-8"?>
<!-- Generator: Adobe Illustrator 24.3.0, SVG Export Plug-In . SVG Version: 6.00 Build 0)  -->
<svg version="1.1" id="Calque_1" xmlns="http://www.w3.org/2000/svg" xmlns:xlink="http://www.w3.org/1999/xlink" x="0px" y="0px"
	 viewBox="0 0 1246 1009" style="enable-background:new 0 0 1246 1009;" xml:space="preserve">
<style type="text/css">
	.st0{fill-rule:evenodd;clip-rule:evenodd;fill:url(#bg_1_);}
</style>
<linearGradient id="bg_1_" gradientUnits="userSpaceOnUse" x1="0.1" y1="504.45" x2="1246.1222" y2="504.45">
	<stop  offset="0" style="stop-color:#1D3758"/>
	<stop  offset="1" style="stop-color:#23426A"/>
</linearGradient>
<path id="bg" class="st0" d="M969.5-0.1L0.1,0v875c0,0,49.4,53.1,77.6,74.2c36,28.1,75.7,44.7,117.9,53c21.4,4.1,43.1,6.4,64.8,6.7
	c2.8,0,5.5,0.1,8.3,0.1s5.6,0,8.3-0.1c5.6-0.1,11.2-0.3,16.8-0.6c11.2-0.6,22.6-1.5,34-2.8c91.3-9.9,186.9-39.8,280.2-53.6
	c94.4-19.5,186.3-23.8,280.3-49.9c92.7-25.2,188.4-70.7,259.2-152.9c73.4-82.1,100.7-181.1,98.5-261c-0.1-5.1-0.3-10.1-0.6-15
	c-0.3-4.9-0.7-9.7-1.2-14.5c-1-9.5-2.3-18.6-4-27.5c-3.1-16.8-7.5-33.2-13.2-49.3c-10.8-30.5-24.9-56.5-40.2-80.4
	C1156,254,1023.1,52.1,969.5-0.1L969.5-0.1z"/>
</svg>
